OxygenSans-Thin.ufo
<glyph name="exclam" format="1">
  <advance width="384"/>
  <unicode hex="0021"/>
  <outline>
    <contour>
      <point x="258" y="1301" type="line"/>
      <point x="212" y="382" type="line"/>
      <point x="171" y="382" type="line"/>
      <point x="121" y="1301" type="line"/>
      <point x="121" y="1378" type="line"/>
      <point x="258" y="1378" type="line"/>
    </contour>
    <contour>
      <point x="193" y="-14" type="curve" smooth="yes"/>
      <point x="116" y="-14"/>
      <point x="92" y="41"/>
      <point x="92" y="89" type="curve" smooth="yes"/>
      <point x="92" y="137"/>
      <point x="116" y="191"/>
      <point x="193" y="191" type="curve" smooth="yes"/>
      <point x="273" y="191"/>
      <point x="295" y="137"/>
      <point x="295" y="89" type="curve" smooth="yes"/>
      <point x="295" y="41"/>
      <point x="273" y="-14"/>
    </contour>
  </outline>
</glyph>
<glyph name="numbersign" format="1">
  <advance width="1105"/>
  <unicode hex="0023"/>
  <outline>
    <contour>
      <point x="312" y="449" type="line"/>
      <point x="374" y="871" type="line"/>
      <point x="232" y="871" type="line"/>
      <point x="241" y="940" type="line"/>
      <point x="390" y="940" type="line"/>
      <point x="471" y="1326" type="line"/>
      <point x="571" y="1326" type="line"/>
      <point x="494" y="940" type="line"/>
      <point x="756" y="940" type="line"/>
      <point x="819" y="1326" type="line"/>
      <point x="883" y="1326" type="line"/>
      <point x="827" y="940" type="line"/>
      <point x="925" y="940" type="line"/>
      <point x="913" y="872" type="line"/>
      <point x="816" y="872" type="line"/>
      <point x="746" y="449" type="line"/>
      <point x="851" y="449" type="line"/>
      <point x="842" y="376" type="line"/>
      <point x="740" y="376" type="line"/>
      <point x="655" y="-26" type="line"/>
      <point x="559" y="-26" type="line"/>
      <point x="640" y="376" type="line"/>
      <point x="375" y="376" type="line"/>
      <point x="301" y="-26" type="line"/>
      <point x="235" y="-26" type="line"/>
      <point x="302" y="376" type="line"/>
      <point x="163" y="376" type="line"/>
      <point x="172" y="449" type="line"/>
    </contour>
    <contour>
      <point x="389" y="449" type="line"/>
      <point x="653" y="449" type="line"/>
      <point x="743" y="872" type="line"/>
      <point x="479" y="872" type="line"/>
    </contour>
  </outline>
</glyph>
<glyph name="percent" format="1">
  <advance width="1657"/>
  <unicode hex="0025"/>
  <outline>
    <contour>
      <point x="352" y="768" type="curve" smooth="yes"/>
      <point x="468" y="768"/>
      <point x="526" y="878"/>
      <point x="526" y="1005" type="curve" smooth="yes"/>
      <point x="526" y="1138"/>
      <point x="465" y="1254"/>
      <point x="352" y="1254" type="curve" smooth="yes"/>
      <point x="236" y="1254"/>
      <point x="179" y="1133"/>
      <point x="179" y="1005" type="curve" smooth="yes"/>
      <point x="179" y="871"/>
      <point x="238" y="768"/>
    </contour>
    <contour>
      <point x="352" y="662" type="curve" smooth="yes"/>
      <point x="174" y="662"/>
      <point x="64" y="808"/>
      <point x="64" y="1005" type="curve" smooth="yes"/>
      <point x="64" y="1203"/>
      <point x="175" y="1355"/>
      <point x="352" y="1355" type="curve" smooth="yes"/>
      <point x="530" y="1355"/>
      <point x="643" y="1206"/>
      <point x="643" y="1005" type="curve" smooth="yes"/>
      <point x="643" y="808"/>
      <point x="529" y="662"/>
    </contour>
    <contour>
      <point x="335" y="-4" type="line"/>
      <point x="1058" y="1330" type="line"/>
      <point x="1206" y="1330" type="line"/>
      <point x="458" y="-4" type="line"/>
    </contour>
    <contour>
      <point x="1272" y="89" type="curve" smooth="yes"/>
      <point x="1408" y="89"/>
      <point x="1478" y="208"/>
      <point x="1478" y="336" type="curve" smooth="yes"/>
      <point x="1478" y="469"/>
      <point x="1407" y="582"/>
      <point x="1272" y="582" type="curve" smooth="yes"/>
      <point x="1136" y="582"/>
      <point x="1067" y="464"/>
      <point x="1067" y="336" type="curve" smooth="yes"/>
      <point x="1067" y="203"/>
      <point x="1137" y="89"/>
    </contour>
    <contour>
      <point x="1272" y="-14" type="curve" smooth="yes"/>
      <point x="1062" y="-14"/>
      <point x="952" y="139"/>
      <point x="952" y="336" type="curve" smooth="yes"/>
      <point x="952" y="534"/>
      <point x="1065" y="686"/>
      <point x="1272" y="686" type="curve" smooth="yes"/>
      <point x="1483" y="686"/>
      <point x="1593" y="537"/>
      <point x="1593" y="336" type="curve" smooth="yes"/>
      <point x="1593" y="139"/>
      <point x="1480" y="-14"/>
    </contour>
  </outline>
</glyph>
<glyph name="hyphen" format="1">
  <advance width="722"/>
  <unicode hex="002D"/>
  <outline>
    <contour>
      <point x="138" y="482" type="line"/>
      <point x="138" y="573" type="line"/>
      <point x="562" y="573" type="line"/>
      <point x="562" y="482" type="line"/>
    </contour>
  </outline>
</glyph>
<glyph name="two" format="1">
  <advance width="1089"/>
  <unicode hex="0032"/>
  <outline>
    <contour>
      <point x="140" y="0" type="line"/>
      <point x="109" y="111" type="line"/>
      <point x="623" y="627" type="line"/>
      <point x="753" y="761"/>
      <point x="823" y="812"/>
      <point x="823" y="995" type="curve" smooth="yes"/>
      <point x="823" y="1173"/>
      <point x="732" y="1266"/>
      <point x="543" y="1266" type="curve" smooth="yes"/>
      <point x="435" y="1266"/>
      <point x="355" y="1279"/>
      <point x="171" y="1154" type="curve"/>
      <point x="136" y="1257" type="line"/>
      <point x="259" y="1335"/>
      <point x="354" y="1368"/>
      <point x="542" y="1368" type="curve" smooth="yes"/>
      <point x="790" y="1368"/>
      <point x="935" y="1220"/>
      <point x="935" y="1012" type="curve" smooth="yes"/>
      <point x="935" y="806"/>
      <point x="870" y="750"/>
      <point x="691" y="569" type="curve"/>
      <point x="217" y="100" type="line"/>
      <point x="950" y="100" type="line"/>
      <point x="945" y="0" type="line"/>
    </contour>
  </outline>
</glyph>
<glyph name="four" format="1">
  <advance width="1178"/>
  <unicode hex="0034"/>
  <outline>
    <contour>
      <point x="827" y="1378" type="line"/>
      <point x="892" y="1378" type="line"/>
      <point x="892" y="452" type="line"/>
      <point x="1063" y="452" type="line"/>
      <point x="1053" y="366" type="line"/>
      <point x="892" y="366" type="line"/>
      <point x="892" y="-5" type="line"/>
      <point x="817" y="-5" type="line"/>
      <point x="817" y="366" type="line"/>
      <point x="176" y="366" type="line"/>
      <point x="176" y="480" type="line"/>
    </contour>
    <contour>
      <point x="816" y="454" type="line"/>
      <point x="815" y="1221" type="line"/>
      <point x="262" y="454" type="line"/>
    </contour>
  </outline>
</glyph>
<glyph name="five" format="1">
  <advance width="1073"/>
  <unicode hex="0035"/>
  <outline>
    <contour>
      <point x="479" y="-29" type="curve" smooth="yes"/>
      <point x="347" y="-29"/>
      <point x="262" y="-15"/>
      <point x="136" y="95" type="curve"/>
      <point x="176" y="187" type="line"/>
      <point x="267" y="118"/>
      <point x="351" y="79"/>
      <point x="508" y="79" type="curve" smooth="yes"/>
      <point x="738" y="79"/>
      <point x="894" y="224"/>
      <point x="894" y="428" type="curve" smooth="yes"/>
      <point x="894" y="597"/>
      <point x="788" y="735"/>
      <point x="549" y="735" type="curve" smooth="yes"/>
      <point x="446" y="735"/>
      <point x="366" y="709"/>
      <point x="309" y="647" type="curve"/>
      <point x="219" y="656" type="line"/>
      <point x="254" y="1378" type="line"/>
      <point x="934" y="1378" type="line"/>
      <point x="924" y="1267" type="line"/>
      <point x="311" y="1267" type="line"/>
      <point x="304" y="1080"/>
      <point x="311" y="946"/>
      <point x="306" y="769" type="curve"/>
      <point x="398" y="830"/>
      <point x="479" y="840"/>
      <point x="575" y="840" type="curve" smooth="yes"/>
      <point x="877" y="840"/>
      <point x="995" y="651"/>
      <point x="995" y="433" type="curve" smooth="yes"/>
      <point x="995" y="155"/>
      <point x="795" y="-29"/>
    </contour>
  </outline>
</glyph>
<glyph name="six" format="1">
  <advance width="1196"/>
  <unicode hex="0036"/>
  <outline>
    <contour>
      <point x="590" y="-24" type="curve" smooth="yes"/>
      <point x="298" y="-24"/>
      <point x="170" y="201"/>
      <point x="170" y="434" type="curve" smooth="yes"/>
      <point x="170" y="658"/>
      <point x="227" y="787"/>
      <point x="473" y="1081" type="curve" smooth="yes"/>
      <point x="594" y="1228"/>
      <point x="725" y="1354"/>
      <point x="725" y="1354" type="curve"/>
      <point x="852" y="1354" type="line"/>
      <point x="300" y="737" type="line"/>
      <point x="385" y="785"/>
      <point x="535" y="837"/>
      <point x="640" y="837" type="curve" smooth="yes"/>
      <point x="849" y="837"/>
      <point x="1019" y="654"/>
      <point x="1019" y="403" type="curve" smooth="yes"/>
      <point x="1019" y="173"/>
      <point x="868" y="-24"/>
    </contour>
    <contour>
      <point x="589" y="75" type="curve" smooth="yes"/>
      <point x="802" y="75"/>
      <point x="916" y="232"/>
      <point x="916" y="400" type="curve" smooth="yes"/>
      <point x="916" y="583"/>
      <point x="813" y="735"/>
      <point x="611" y="735" type="curve" smooth="yes"/>
      <point x="381" y="735"/>
      <point x="250" y="579"/>
      <point x="250" y="412" type="curve" smooth="yes"/>
      <point x="250" y="243"/>
      <point x="373" y="75"/>
    </contour>
  </outline>
</glyph>
<glyph name="seven" format="1">
  <advance width="956"/>
  <unicode hex="0037"/>
  <outline>
    <contour>
      <point x="851" y="1374" type="line"/>
      <point x="851" y="1278" type="line"/>
      <point x="338" y="1" type="line"/>
      <point x="241" y="1" type="line"/>
      <point x="744" y="1274" type="line"/>
      <point x="142" y="1274" type="line"/>
      <point x="116" y="1374" type="line"/>
    </contour>
  </outline>
</glyph>
<glyph name="equal" format="1">
  <advance width="1161"/>
  <unicode hex="003D"/>
  <outline>
    <contour>
      <point x="148" y="354" type="line"/>
      <point x="997" y="354" type="line"/>
      <point x="997" y="442" type="line"/>
      <point x="148" y="442" type="line"/>
    </contour>
    <contour>
      <point x="146" y="758" type="line"/>
      <point x="997" y="758" type="line"/>
      <point x="997" y="843" type="line"/>
      <point x="146" y="843" type="line"/>
    </contour>
  </outline>
</glyph>
<glyph name="A" format="1">
  <advance width="1129"/>
  <unicode hex="0041"/>
  <outline>
    <contour>
      <point x="328" y="548" type="line"/>
      <point x="328" y="548"/>
      <point x="566" y="1239"/>
      <point x="566" y="1239" type="curve"/>
      <point x="566" y="1239"/>
      <point x="813" y="548"/>
      <point x="813" y="548" type="curve"/>
    </contour>
    <contour>
      <point x="11" y="0" type="line"/>
      <point x="119" y="0" type="line"/>
      <point x="296" y="474" type="line"/>
      <point x="836" y="474" type="line"/>
      <point x="1015" y="0" type="line"/>
      <point x="1118" y="0" type="line"/>
      <point x="614" y="1353" type="line"/>
      <point x="517" y="1353" type="line"/>
    </contour>
    <contour>
      <point x="561" y="1339" type="move" name="top"/>
    </contour>
    <contour>
      <point x="1021" y="0" type="move" name="ogonek"/>
    </contour>
  </outline>
</glyph>
<glyph name="C" format="1">
  <advance width="1189"/>
  <unicode hex="0043"/>
  <outline>
    <contour>
      <point x="738" y="-18" type="curve" smooth="yes"/>
      <point x="917" y="-18"/>
      <point x="1070" y="38"/>
      <point x="1088" y="63" type="curve"/>
      <point x="1056" y="147" type="line"/>
      <point x="964" y="107"/>
      <point x="883" y="74"/>
      <point x="760" y="74" type="curve" smooth="yes"/>
      <point x="386" y="74"/>
      <point x="213" y="340"/>
      <point x="213" y="675" type="curve" smooth="yes"/>
      <point x="213" y="1010"/>
      <point x="387" y="1274"/>
      <point x="740" y="1274" type="curve" smooth="yes"/>
      <point x="858" y="1274"/>
      <point x="975" y="1244"/>
      <point x="1056" y="1191" type="curve"/>
      <point x="1102" y="1263" type="line"/>
      <point x="1024" y="1323"/>
      <point x="895" y="1366"/>
      <point x="727" y="1366" type="curve" smooth="yes"/>
      <point x="314" y="1366"/>
      <point x="99" y="1064"/>
      <point x="99" y="681" type="curve" smooth="yes"/>
      <point x="99" y="265"/>
      <point x="351" y="-18"/>
    </contour>
    <contour>
      <point x="596" y="1349" type="move" name="top"/>
    </contour>
    <contour>
      <point x="596" y="4" type="move" name="bottom"/>
    </contour>
  </outline>
</glyph>
<glyph name="D" format="1">
  <advance width="1358"/>
  <unicode hex="0044"/>
  <outline>
    <contour>
      <point x="277" y="1265" type="line"/>
      <point x="277" y="89" type="line"/>
      <point x="551" y="89" type="line" smooth="yes"/>
      <point x="951" y="89"/>
      <point x="1145" y="282"/>
      <point x="1145" y="675" type="curve" smooth="yes"/>
      <point x="1145" y="1107"/>
      <point x="916" y="1265"/>
      <point x="526" y="1265" type="curve" smooth="yes"/>
    </contour>
    <contour>
      <point x="163" y="0" type="line"/>
      <point x="163" y="1354" type="line"/>
      <point x="541" y="1354" type="line" smooth="yes"/>
      <point x="970" y="1354"/>
      <point x="1259" y="1156"/>
      <point x="1259" y="679" type="curve" smooth="yes"/>
      <point x="1259" y="229"/>
      <point x="1000" y="0"/>
      <point x="570" y="0" type="curve" smooth="yes"/>
    </contour>
    <contour>
      <point x="654" y="1349" type="move" name="top"/>
    </contour>
    <contour>
      <point x="654" y="675" type="move" name="center"/>
    </contour>
  </outline>
</glyph>
<glyph name="G" format="1">
  <advance width="1325"/>
  <unicode hex="0047"/>
  <outline>
    <contour>
      <point x="741" y="-18" type="curve" smooth="yes"/>
      <point x="926" y="-18"/>
      <point x="1070" y="11"/>
      <point x="1204" y="60" type="curve"/>
      <point x="1204" y="676" type="line"/>
      <point x="786" y="676" type="line"/>
      <point x="777" y="577" type="line"/>
      <point x="1090" y="577" type="line"/>
      <point x="1090" y="121" type="line"/>
      <point x="1038" y="110"/>
      <point x="899" y="74"/>
      <point x="778" y="74" type="curve" smooth="yes"/>
      <point x="371" y="74"/>
      <point x="213" y="313"/>
      <point x="213" y="673" type="curve" smooth="yes"/>
      <point x="213" y="1009"/>
      <point x="407" y="1274"/>
      <point x="749" y="1274" type="curve" smooth="yes"/>
      <point x="989" y="1274"/>
      <point x="1086" y="1203"/>
      <point x="1134" y="1173" type="curve"/>
      <point x="1163" y="1261" type="line"/>
      <point x="1065" y="1340"/>
      <point x="906" y="1366"/>
      <point x="752" y="1366" type="curve" smooth="yes"/>
      <point x="322" y="1366"/>
      <point x="99" y="1060"/>
      <point x="99" y="672" type="curve" smooth="yes"/>
      <point x="99" y="286"/>
      <point x="309" y="-18"/>
    </contour>
    <contour>
      <point x="663" y="1349" type="move" name="top"/>
    </contour>
    <contour>
      <point x="663" y="0" type="move" name="bottom"/>
    </contour>
  </outline>
</glyph>
<glyph name="H" format="1">
  <advance width="1319"/>
  <unicode hex="0048"/>
  <outline>
    <contour>
      <point x="277" y="748" type="line"/>
      <point x="277" y="1353" type="line"/>
      <point x="163" y="1353" type="line"/>
      <point x="163" y="0" type="line"/>
      <point x="277" y="0" type="line"/>
      <point x="277" y="671" type="line"/>
      <point x="1042" y="671" type="line"/>
      <point x="1042" y="0" type="line"/>
      <point x="1156" y="0" type="line"/>
      <point x="1156" y="1353" type="line"/>
      <point x="1042" y="1353" type="line"/>
      <point x="1042" y="748" type="line"/>
    </contour>
    <contour>
      <point x="660" y="1349" type="move" name="top"/>
    </contour>
    <contour>
      <point x="660" y="675" type="move" name="center"/>
    </contour>
  </outline>
</glyph>
<glyph name="I" format="1">
  <advance width="440"/>
  <unicode hex="0049"/>
  <outline>
    <contour>
      <point x="163" y="0" type="line"/>
      <point x="163" y="1353" type="line"/>
      <point x="277" y="1353" type="line"/>
      <point x="277" y="0" type="line"/>
    </contour>
    <contour>
      <point x="220" y="1354" type="move" name="top"/>
    </contour>
    <contour>
      <point x="396" y="10" type="move" name="ogonek"/>
    </contour>
  </outline>
</glyph>
<glyph name="J" format="1">
  <advance width="610"/>
  <unicode hex="004A"/>
  <outline>
    <contour>
      <point x="131" y="-131" type="line"/>
      <point x="438" y="-131"/>
      <point x="447" y="0"/>
      <point x="447" y="268" type="curve" smooth="yes"/>
      <point x="447" y="1353" type="line"/>
      <point x="333" y="1353" type="line"/>
      <point x="333" y="226" type="line" smooth="yes"/>
      <point x="333" y="12"/>
      <point x="317" y="-37"/>
      <point x="115" y="-37" type="curve"/>
    </contour>
    <contour>
      <point x="284" y="1349" type="move" name="top"/>
    </contour>
  </outline>
</glyph>
<glyph name="M" format="1">
  <advance width="1560"/>
  <unicode hex="004D"/>
  <outline>
    <contour>
      <point x="1235" y="1354" type="line"/>
      <point x="1397" y="1354" type="line"/>
      <point x="1397" y="0" type="line"/>
      <point x="1292" y="0" type="line"/>
      <point x="1292" y="1004" type="line"/>
      <point x="1298" y="1265" type="line"/>
      <point x="844" y="98" type="line"/>
      <point x="725" y="98" type="line"/>
      <point x="262" y="1267" type="line"/>
      <point x="270" y="1000" type="line"/>
      <point x="270" y="0" type="line"/>
      <point x="163" y="0" type="line"/>
      <point x="163" y="1354" type="line"/>
      <point x="332" y="1354" type="line"/>
      <point x="785" y="213" type="line"/>
    </contour>
  </outline>
</glyph>
<glyph name="P" format="1">
  <advance width="1072"/>
  <unicode hex="0050"/>
  <outline>
    <contour>
      <point x="875" y="800"/>
      <point x="760" y="715"/>
      <point x="565" y="715" type="curve" smooth="yes"/>
      <point x="491" y="715"/>
      <point x="256" y="718"/>
      <point x="277" y="718" type="curve"/>
      <point x="277" y="1265" type="line"/>
      <point x="561" y="1265" type="line" smooth="yes"/>
      <point x="734" y="1265"/>
      <point x="870" y="1185"/>
      <point x="875" y="1010" type="curve" smooth="yes"/>
    </contour>
    <contour>
      <point x="277" y="627" type="line"/>
      <point x="348" y="624"/>
      <point x="504" y="626"/>
      <point x="563" y="626" type="curve" smooth="yes"/>
      <point x="851" y="626"/>
      <point x="989" y="772"/>
      <point x="989" y="1009" type="curve"/>
      <point x="989" y="1241"/>
      <point x="804" y="1354"/>
      <point x="568" y="1354" type="curve" smooth="yes"/>
      <point x="163" y="1354" type="line"/>
      <point x="163" y="0" type="line"/>
      <point x="277" y="0" type="line"/>
    </contour>
  </outline>
</glyph>
<glyph name="R" format="1">
  <advance width="1240"/>
  <unicode hex="0052"/>
  <outline>
    <contour>
      <point x="586" y="775" type="line"/>
      <point x="937" y="775"/>
      <point x="998" y="857"/>
      <point x="998" y="1031" type="curve" smooth="yes"/>
      <point x="998" y="1153"/>
      <point x="967" y="1264"/>
      <point x="623" y="1264" type="curve" smooth="yes"/>
      <point x="277" y="1264" type="line"/>
      <point x="277" y="775" type="line"/>
    </contour>
    <contour>
      <point x="163" y="0" type="line"/>
      <point x="163" y="1353" type="line"/>
      <point x="635" y="1353" type="line" smooth="yes"/>
      <point x="972" y="1353"/>
      <point x="1112" y="1242"/>
      <point x="1112" y="1032" type="curve" smooth="yes"/>
      <point x="1112" y="819"/>
      <point x="987" y="746"/>
      <point x="861" y="713" type="curve"/>
      <point x="861" y="713"/>
      <point x="908" y="594"/>
      <point x="936" y="530" type="curve" smooth="yes"/>
      <point x="1164" y="0" type="line"/>
      <point x="1048" y="0" type="line"/>
      <point x="847" y="482" type="line"/>
      <point x="808" y="572"/>
      <point x="788" y="634"/>
      <point x="751" y="691" type="curve"/>
      <point x="718" y="687"/>
      <point x="592" y="685"/>
      <point x="563" y="685" type="curve" smooth="yes"/>
      <point x="533" y="685"/>
      <point x="277" y="685"/>
      <point x="277" y="685" type="curve"/>
      <point x="277" y="0" type="line"/>
    </contour>
    <contour>
      <point x="627" y="1349" type="move" name="top"/>
    </contour>
    <contour>
      <point x="627" y="0" type="move" name="bottom"/>
    </contour>
  </outline>
</glyph>
<glyph name="S" format="1">
  <advance width="1053.615"/>
  <unicode hex="0053"/>
  <outline>
    <contour>
      <point x="521" y="-19" type="curve" smooth="yes"/>
      <point x="762" y="-19"/>
      <point x="953" y="71"/>
      <point x="968" y="343" type="curve" smooth="yes"/>
      <point x="981" y="583"/>
      <point x="785" y="661"/>
      <point x="639" y="720" type="curve" smooth="yes"/>
      <point x="426" y="806" type="line" smooth="yes"/>
      <point x="267" y="870"/>
      <point x="215" y="916"/>
      <point x="221" y="1049" type="curve" smooth="yes"/>
      <point x="229" y="1233"/>
      <point x="393" y="1274"/>
      <point x="547" y="1274" type="curve" smooth="yes"/>
      <point x="714" y="1274"/>
      <point x="830" y="1197"/>
      <point x="857" y="1178" type="curve"/>
      <point x="909" y="1249" type="line"/>
      <point x="849" y="1300"/>
      <point x="711" y="1366"/>
      <point x="559" y="1366" type="curve" smooth="yes"/>
      <point x="352" y="1366"/>
      <point x="129" y="1311"/>
      <point x="115" y="1044" type="curve" smooth="yes"/>
      <point x="106" y="865"/>
      <point x="221" y="786"/>
      <point x="396" y="717" type="curve" smooth="yes"/>
      <point x="618" y="630" type="line" smooth="yes"/>
      <point x="820" y="551"/>
      <point x="875" y="468"/>
      <point x="868" y="339" type="curve" smooth="yes"/>
      <point x="857" y="146"/>
      <point x="737" y="70"/>
      <point x="526" y="73" type="curve" smooth="yes"/>
      <point x="340" y="75"/>
      <point x="237" y="136"/>
      <point x="146" y="205" type="curve"/>
      <point x="101" y="125" type="line"/>
      <point x="148" y="84"/>
      <point x="264" y="-19"/>
    </contour>
    <contour>
      <point x="537" y="1349" type="move" name="top"/>
    </contour>
    <contour>
      <point x="537" y="0" type="move" name="bottom"/>
    </contour>
  </outline>
</glyph>
<glyph name="T" format="1">
  <advance width="1029"/>
  <unicode hex="0054"/>
  <outline>
    <contour>
      <point x="993" y="1353" type="line"/>
      <point x="993" y="1263" type="line"/>
      <point x="569" y="1265" type="line"/>
      <point x="569" y="2" type="line"/>
      <point x="455" y="0" type="line"/>
      <point x="455" y="1263" type="line"/>
      <point x="36" y="1263" type="line"/>
      <point x="36" y="1353" type="line"/>
    </contour>
    <contour>
      <point x="518" y="1349" type="move" name="top"/>
    </contour>
    <contour>
      <point x="518" y="675" type="move" name="center"/>
    </contour>
    <contour>
      <point x="518" y="0" type="move" name="bottom"/>
    </contour>
  </outline>
</glyph>
<glyph name="U" format="1">
  <advance width="1304"/>
  <unicode hex="0055"/>
  <outline>
    <contour>
      <point x="651" y="-18" type="curve" smooth="yes"/>
      <point x="286" y="-18"/>
      <point x="127" y="213"/>
      <point x="127" y="502" type="curve" smooth="yes"/>
      <point x="127" y="1354" type="line"/>
      <point x="241" y="1354" type="line"/>
      <point x="241" y="499" type="line" smooth="yes"/>
      <point x="241" y="223"/>
      <point x="361" y="74"/>
      <point x="651" y="74" type="curve" smooth="yes"/>
      <point x="926" y="74"/>
      <point x="1063" y="222"/>
      <point x="1063" y="498" type="curve" smooth="yes"/>
      <point x="1063" y="1354" type="line"/>
      <point x="1177" y="1354" type="line"/>
      <point x="1177" y="499" type="line" smooth="yes"/>
      <point x="1177" y="210"/>
      <point x="1018" y="-18"/>
    </contour>
    <contour>
      <point x="655" y="1349" type="move" name="top"/>
    </contour>
    <contour>
      <point x="1170" y="10" type="move" name="ogonek"/>
    </contour>
  </outline>
</glyph>
<glyph name="V" format="1">
  <advance width="1129"/>
  <unicode hex="0056"/>
  <outline>
    <contour>
      <point x="592" y="0" type="line"/>
      <point x="1136" y="1353" type="line"/>
      <point x="1023" y="1353" type="line"/>
      <point x="862" y="925"/>
      <point x="676" y="451"/>
      <point x="676" y="451" type="curve"/>
      <point x="650" y="389"/>
      <point x="563" y="154"/>
      <point x="563" y="154" type="curve"/>
      <point x="563" y="154"/>
      <point x="475" y="383"/>
      <point x="451" y="446" type="curve"/>
      <point x="107" y="1353" type="line"/>
      <point x="-7" y="1353" type="line"/>
      <point x="538" y="0" type="line"/>
    </contour>
  </outline>
</glyph>
<glyph name="Z" format="1">
  <advance width="1080"/>
  <unicode hex="005A"/>
  <outline>
    <contour>
      <point x="127" y="1353" type="line"/>
      <point x="127" y="1264" type="line"/>
      <point x="881" y="1264" type="line"/>
      <point x="85" y="94" type="line"/>
      <point x="85" y="0" type="line"/>
      <point x="995" y="0" type="line"/>
      <point x="1006" y="89" type="line"/>
      <point x="198" y="89" type="line"/>
      <point x="1000" y="1269" type="line"/>
      <point x="991" y="1353" type="line"/>
    </contour>
    <contour>
      <point x="558" y="1349" type="move" name="top"/>
    </contour>
  </outline>
</glyph>
<glyph name="bracketright" format="1">
  <advance width="601"/>
  <unicode hex="005D"/>
  <outline>
    <contour>
      <point x="96" y="1248" type="line"/>
      <point x="96" y="1330" type="line"/>
      <point x="494" y="1330" type="line"/>
      <point x="494" y="-287" type="line"/>
      <point x="96" y="-287" type="line"/>
      <point x="96" y="-207" type="line"/>
      <point x="402" y="-207" type="line"/>
      <point x="402" y="1248" type="line"/>
    </contour>
  </outline>
</glyph>
<glyph name="asciicircum" format="1">
  <advance width="1242"/>
  <unicode hex="005E"/>
  <outline>
    <contour>
      <point x="175" y="566" type="line"/>
      <point x="569" y="1402" type="line"/>
      <point x="638" y="1402" type="line"/>
      <point x="1053" y="566" type="line"/>
      <point x="983" y="566" type="line"/>
      <point x="603" y="1307" type="line"/>
      <point x="249" y="566" type="line"/>
    </contour>
  </outline>
</glyph>
<glyph name="a" format="1">
  <advance width="1045"/>
  <unicode hex="0061"/>
  <outline>
    <contour>
      <point x="429" y="-14" type="curve" smooth="yes"/>
      <point x="550" y="-14"/>
      <point x="687" y="16"/>
      <point x="802" y="169" type="curve"/>
      <point x="802" y="169"/>
      <point x="822" y="4"/>
      <point x="822" y="4" type="curve"/>
      <point x="902" y="4" type="line"/>
      <point x="902" y="656" type="line" smooth="yes"/>
      <point x="902" y="918"/>
      <point x="746" y="1005"/>
      <point x="523" y="1005" type="curve" smooth="yes"/>
      <point x="410" y="1005"/>
      <point x="261" y="968"/>
      <point x="186" y="923" type="curve"/>
      <point x="194" y="900"/>
      <point x="213" y="864"/>
      <point x="223" y="842" type="curve"/>
      <point x="312" y="891"/>
      <point x="442" y="919"/>
      <point x="543" y="919" type="curve" smooth="yes"/>
      <point x="714" y="919"/>
      <point x="791" y="828"/>
      <point x="791" y="676" type="curve" smooth="yes"/>
      <point x="791" y="570" type="line"/>
      <point x="791" y="570"/>
      <point x="657" y="562"/>
      <point x="623" y="560" type="curve" smooth="yes"/>
      <point x="320" y="542"/>
      <point x="122" y="458"/>
      <point x="122" y="249" type="curve" smooth="yes"/>
      <point x="122" y="74"/>
      <point x="249" y="-14"/>
    </contour>
    <contour>
      <point x="419" y="72" type="curve" smooth="yes"/>
      <point x="329" y="72"/>
      <point x="234" y="115"/>
      <point x="234" y="246" type="curve" smooth="yes"/>
      <point x="234" y="401"/>
      <point x="329" y="442"/>
      <point x="650" y="483" type="curve"/>
      <point x="689" y="488"/>
      <point x="791" y="497"/>
      <point x="791" y="497" type="curve"/>
      <point x="791" y="299" type="line"/>
      <point x="711" y="114"/>
      <point x="581" y="72"/>
    </contour>
    <contour>
      <point x="523" y="986" type="move" name="top"/>
    </contour>
    <contour>
      <point x="940" y="10" type="move" name="ogonek"/>
    </contour>
  </outline>
</glyph>
<glyph name="d" format="1">
  <advance width="1123"/>
  <unicode hex="0064"/>
  <outline>
    <contour>
      <point x="525" y="-18" type="curve" smooth="yes"/>
      <point x="662" y="-18"/>
      <point x="812" y="66"/>
      <point x="866" y="221" type="curve"/>
      <point x="880" y="0" type="line"/>
      <point x="971" y="0" type="line"/>
      <point x="971" y="1451" type="line"/>
      <point x="857" y="1443" type="line"/>
      <point x="857" y="1067" type="line" smooth="yes"/>
      <point x="857" y="983"/>
      <point x="862" y="848"/>
      <point x="867" y="768" type="curve"/>
      <point x="820" y="897"/>
      <point x="688" y="998"/>
      <point x="537" y="1004" type="curve" smooth="yes"/>
      <point x="255" y="1016"/>
      <point x="94" y="805"/>
      <point x="94" y="499" type="curve" smooth="yes"/>
      <point x="94" y="185"/>
      <point x="238" y="-18"/>
    </contour>
    <contour>
      <point x="521" y="68" type="curve" smooth="yes"/>
      <point x="289" y="68"/>
      <point x="208" y="261"/>
      <point x="208" y="497" type="curve" smooth="yes"/>
      <point x="208" y="745"/>
      <point x="300" y="919"/>
      <point x="528" y="919" type="curve" smooth="yes"/>
      <point x="736" y="919"/>
      <point x="860" y="745"/>
      <point x="860" y="482" type="curve"/>
      <point x="861" y="249"/>
      <point x="768" y="68"/>
    </contour>
    <contour>
      <point x="540" y="492" type="move" name="center"/>
    </contour>
  </outline>
</glyph>
<glyph name="e" format="1">
  <advance width="1030"/>
  <unicode hex="0065"/>
  <outline>
    <contour>
      <point x="203" y="562" type="line"/>
      <point x="218" y="771"/>
      <point x="358" y="919"/>
      <point x="552" y="919" type="curve" smooth="yes"/>
      <point x="746" y="919"/>
      <point x="813" y="792"/>
      <point x="819" y="562" type="curve"/>
    </contour>
    <contour>
      <point x="555" y="-18" type="curve" smooth="yes"/>
      <point x="699" y="-18"/>
      <point x="808" y="13"/>
      <point x="904" y="69" type="curve"/>
      <point x="870" y="141" type="line"/>
      <point x="747" y="77"/>
      <point x="661" y="68"/>
      <point x="564" y="68" type="curve" smooth="yes"/>
      <point x="361" y="68"/>
      <point x="200" y="182"/>
      <point x="200" y="483" type="curve"/>
      <point x="921" y="483" type="line"/>
      <point x="921" y="483"/>
      <point x="926" y="521"/>
      <point x="926" y="550" type="curve" smooth="yes"/>
      <point x="926" y="827"/>
      <point x="790" y="1005"/>
      <point x="550" y="1005" type="curve" smooth="yes"/>
      <point x="307" y="1005"/>
      <point x="94" y="800"/>
      <point x="94" y="485" type="curve" smooth="yes"/>
      <point x="94" y="171"/>
      <point x="286" y="-18"/>
    </contour>
    <contour>
      <point x="504" y="986" type="move" name="top"/>
    </contour>
    <contour>
      <point x="908" y="10" type="move" name="ogonek"/>
    </contour>
    <contour>
      <point x="504" y="0" type="move" name="bottom"/>
    </contour>
  </outline>
</glyph>
<glyph name="h" format="1">
  <advance width="1059"/>
  <unicode hex="0068"/>
  <outline>
    <contour>
      <point x="161" y="1444" type="line"/>
      <point x="161" y="0" type="line"/>
      <point x="275" y="0" type="line"/>
      <point x="275" y="567" type="line" smooth="yes"/>
      <point x="275" y="595"/>
      <point x="278" y="623"/>
      <point x="278" y="658" type="curve"/>
      <point x="302" y="797"/>
      <point x="385" y="919"/>
      <point x="593" y="919" type="curve" smooth="yes"/>
      <point x="761" y="919"/>
      <point x="806" y="812"/>
      <point x="806" y="606" type="curve" smooth="yes"/>
      <point x="806" y="0" type="line"/>
      <point x="920" y="0" type="line"/>
      <point x="920" y="605" type="line" smooth="yes"/>
      <point x="920" y="851"/>
      <point x="829" y="1005"/>
      <point x="609" y="1005" type="curve" smooth="yes"/>
      <point x="475" y="1005"/>
      <point x="328" y="945"/>
      <point x="269" y="810" type="curve"/>
      <point x="269" y="810"/>
      <point x="275" y="1047"/>
      <point x="275" y="1029" type="curve" smooth="yes"/>
      <point x="275" y="1456" type="line"/>
    </contour>
    <contour>
      <point x="532" y="986" type="move" name="top"/>
    </contour>
    <contour>
      <point x="532" y="494" type="move" name="center"/>
    </contour>
  </outline>
</glyph>
<glyph name="j" format="1">
  <advance width="343"/>
  <unicode hex="006A"/>
  <outline>
    <contour>
      <point x="111" y="1209" type="line"/>
      <point x="227" y="1209" type="line"/>
      <point x="227" y="1364" type="line"/>
      <point x="111" y="1364" type="line"/>
    </contour>
    <contour>
      <point x="-57" y="-411" type="line"/>
      <point x="-18" y="-411" type="line" smooth="yes"/>
      <point x="177" y="-411"/>
      <point x="227" y="-359"/>
      <point x="227" y="-139" type="curve" smooth="yes"/>
      <point x="227" y="985" type="line"/>
      <point x="111" y="985" type="line"/>
      <point x="111" y="-84" type="line" smooth="yes"/>
      <point x="111" y="-243"/>
      <point x="150" y="-303"/>
      <point x="-33" y="-303" type="curve" smooth="yes"/>
      <point x="-70" y="-303" type="line"/>
    </contour>
  </outline>
</glyph>
<glyph name="l" format="1">
  <advance width="447"/>
  <unicode hex="006C"/>
  <outline>
    <contour>
      <point x="342" y="-12" type="curve" smooth="yes"/>
      <point x="359" y="-12"/>
      <point x="378" y="-11"/>
      <point x="397" y="-10" type="curve"/>
      <point x="390" y="68" type="line"/>
      <point x="379" y="68" type="line"/>
      <point x="294" y="68"/>
      <point x="282" y="124"/>
      <point x="282" y="236" type="curve" smooth="yes"/>
      <point x="282" y="1456" type="line"/>
      <point x="168" y="1444" type="line"/>
      <point x="168" y="242" type="line" smooth="yes"/>
      <point x="168" y="26"/>
      <point x="231" y="-12"/>
    </contour>
    <contour>
      <point x="224" y="986" type="move" name="top"/>
    </contour>
    <contour>
      <point x="425" y="986" type="move" name="topright"/>
    </contour>
    <contour>
      <point x="224" y="0" type="move" name="bottom"/>
    </contour>
  </outline>
</glyph>
<glyph name="m" format="1">
  <advance width="1620"/>
  <unicode hex="006D"/>
  <outline>
    <contour>
      <point x="271" y="545" type="line" smooth="yes"/>
      <point x="271" y="581"/>
      <point x="272" y="630"/>
      <point x="272" y="653" type="curve"/>
      <point x="299" y="802"/>
      <point x="420" y="919"/>
      <point x="570" y="919" type="curve" smooth="yes"/>
      <point x="724" y="919"/>
      <point x="775" y="809"/>
      <point x="775" y="545" type="curve" smooth="yes"/>
      <point x="775" y="0" type="line"/>
      <point x="881" y="0" type="line"/>
      <point x="881" y="495" type="line"/>
      <point x="876" y="546"/>
      <point x="885" y="667"/>
      <point x="885" y="691" type="curve"/>
      <point x="925" y="855"/>
      <point x="1052" y="919"/>
      <point x="1170" y="919" type="curve" smooth="yes"/>
      <point x="1376" y="919"/>
      <point x="1375" y="694"/>
      <point x="1375" y="561" type="curve" smooth="yes"/>
      <point x="1375" y="0" type="line"/>
      <point x="1481" y="0" type="line"/>
      <point x="1481" y="639" type="line" smooth="yes"/>
      <point x="1481" y="879"/>
      <point x="1377" y="1005"/>
      <point x="1182" y="1005" type="curve" smooth="yes"/>
      <point x="1046" y="1005"/>
      <point x="921" y="946"/>
      <point x="850" y="769" type="curve"/>
      <point x="831" y="852"/>
      <point x="772" y="1005"/>
      <point x="574" y="1005" type="curve" smooth="yes"/>
      <point x="458" y="1005"/>
      <point x="349" y="946"/>
      <point x="264" y="810" type="curve"/>
      <point x="249" y="986" type="line"/>
      <point x="161" y="986" type="line"/>
      <point x="161" y="883"/>
      <point x="165" y="0"/>
      <point x="165" y="0" type="curve"/>
      <point x="271" y="0" type="line"/>
    </contour>
  </outline>
</glyph>
<glyph name="o" format="1">
  <advance width="1098"/>
  <unicode hex="006F"/>
  <outline>
    <contour>
      <point x="549" y="-18" type="curve" smooth="yes"/>
      <point x="817" y="-18"/>
      <point x="1004" y="203"/>
      <point x="1004" y="490" type="curve" smooth="yes"/>
      <point x="1004" y="790"/>
      <point x="842" y="1005"/>
      <point x="549" y="1005" type="curve" smooth="yes"/>
      <point x="264" y="1005"/>
      <point x="94" y="785"/>
      <point x="94" y="490" type="curve" smooth="yes"/>
      <point x="94" y="200"/>
      <point x="264" y="-18"/>
    </contour>
    <contour>
      <point x="549" y="68" type="curve" smooth="yes"/>
      <point x="308" y="68"/>
      <point x="206" y="259"/>
      <point x="206" y="488" type="curve" smooth="yes"/>
      <point x="206" y="726"/>
      <point x="308" y="919"/>
      <point x="549" y="919" type="curve" smooth="yes"/>
      <point x="796" y="919"/>
      <point x="892" y="725"/>
      <point x="892" y="487" type="curve" smooth="yes"/>
      <point x="892" y="259"/>
      <point x="799" y="68"/>
    </contour>
    <contour>
      <point x="549" y="986" type="move" name="top"/>
    </contour>
  </outline>
</glyph>
<glyph name="r" format="1">
  <advance width="682"/>
  <unicode hex="0072"/>
  <outline>
    <contour>
      <point x="161" y="986" type="line"/>
      <point x="247" y="986" type="line"/>
      <point x="261" y="760" type="line"/>
      <point x="333" y="919"/>
      <point x="450" y="998"/>
      <point x="579" y="998" type="curve" smooth="yes"/>
      <point x="609" y="998"/>
      <point x="637" y="996"/>
      <point x="657" y="993" type="curve"/>
      <point x="649" y="903" type="line"/>
      <point x="629" y="908"/>
      <point x="605" y="910"/>
      <point x="586" y="910" type="curve" smooth="yes"/>
      <point x="411" y="910"/>
      <point x="275" y="748"/>
      <point x="275" y="568" type="curve" smooth="yes"/>
      <point x="275" y="0" type="line"/>
      <point x="161" y="0" type="line"/>
    </contour>
    <contour>
      <point x="331" y="986" type="move" name="top"/>
    </contour>
    <contour>
      <point x="331" y="0" type="move" name="bottom"/>
    </contour>
  </outline>
</glyph>
<glyph name="s" format="1">
  <advance width="786"/>
  <unicode hex="0073"/>
  <outline>
    <contour>
      <point x="394" y="-18" type="curve" smooth="yes"/>
      <point x="260" y="-18"/>
      <point x="137" y="17"/>
      <point x="98" y="36" type="curve"/>
      <point x="128" y="116" type="line"/>
      <point x="179" y="98"/>
      <point x="261" y="68"/>
      <point x="401" y="68" type="curve" smooth="yes"/>
      <point x="564" y="68"/>
      <point x="634" y="130"/>
      <point x="634" y="245" type="curve"/>
      <point x="634" y="349"/>
      <point x="602" y="403"/>
      <point x="412" y="461" type="curve" smooth="yes"/>
      <point x="320" y="489" type="line" smooth="yes"/>
      <point x="132" y="546"/>
      <point x="78" y="643"/>
      <point x="77" y="743" type="curve"/>
      <point x="77" y="879"/>
      <point x="194" y="1005"/>
      <point x="412" y="1005" type="curve" smooth="yes"/>
      <point x="530" y="1005"/>
      <point x="598" y="990"/>
      <point x="679" y="955" type="curve"/>
      <point x="649" y="870" type="line"/>
      <point x="590" y="896"/>
      <point x="529" y="919"/>
      <point x="424" y="919" type="curve" smooth="yes"/>
      <point x="262" y="919"/>
      <point x="176" y="843"/>
      <point x="176" y="752" type="curve" smooth="yes"/>
      <point x="176" y="652"/>
      <point x="228" y="608"/>
      <point x="362" y="569" type="curve"/>
      <point x="362" y="569"/>
      <point x="447" y="542"/>
      <point x="447" y="542" type="curve"/>
      <point x="681" y="470"/>
      <point x="730" y="389"/>
      <point x="730" y="244" type="curve" smooth="yes"/>
      <point x="725" y="71"/>
      <point x="603" y="-18"/>
    </contour>
    <contour>
      <point x="399" y="984" type="move" name="top"/>
    </contour>
    <contour>
      <point x="399" y="0" type="move" name="bottom"/>
    </contour>
  </outline>
</glyph>
<glyph name="t" format="1">
  <advance width="674"/>
  <unicode hex="0074"/>
  <outline>
    <contour>
      <point x="455" y="-18" type="curve" smooth="yes"/>
      <point x="305" y="-18"/>
      <point x="197" y="68"/>
      <point x="197" y="261" type="curve"/>
      <point x="197" y="919" type="line"/>
      <point x="59" y="919" type="line"/>
      <point x="59" y="974" type="line"/>
      <point x="205" y="986" type="line"/>
      <point x="236" y="1200" type="line"/>
      <point x="311" y="1205" type="line"/>
      <point x="311" y="986" type="line"/>
      <point x="614" y="986" type="line"/>
      <point x="614" y="919" type="line"/>
      <point x="311" y="919" type="line"/>
      <point x="311" y="265" type="line" smooth="yes"/>
      <point x="311" y="106"/>
      <point x="376" y="68"/>
      <point x="474" y="68" type="curve" smooth="yes"/>
      <point x="540" y="68"/>
      <point x="601" y="88"/>
      <point x="601" y="88" type="curve"/>
      <point x="623" y="8" type="line"/>
      <point x="623" y="8"/>
      <point x="552" y="-18"/>
    </contour>
    <contour>
      <point x="322" y="494" type="move" name="center"/>
    </contour>
    <contour>
      <point x="322" y="0" type="move" name="bottom"/>
    </contour>
  </outline>
</glyph>
<glyph name="v" format="1">
  <advance width="963"/>
  <unicode hex="0076"/>
  <outline>
    <contour>
      <point x="422" y="0" type="line"/>
      <point x="543" y="0" type="line"/>
      <point x="919" y="986" type="line"/>
      <point x="806" y="986" type="line"/>
      <point x="806" y="986"/>
      <point x="689" y="664"/>
      <point x="595" y="409" type="curve"/>
      <point x="554" y="295"/>
      <point x="482" y="106"/>
      <point x="482" y="106" type="curve"/>
      <point x="482" y="106"/>
      <point x="421" y="271"/>
      <point x="370" y="406" type="curve" smooth="yes"/>
      <point x="157" y="986" type="line"/>
      <point x="44" y="986" type="line"/>
    </contour>
  </outline>
</glyph>
<glyph name="x" format="1">
  <advance width="936"/>
  <unicode hex="0078"/>
  <outline>
    <contour>
      <point x="465" y="580" type="line"/>
      <point x="771" y="985" type="line"/>
      <point x="893" y="985" type="line"/>
      <point x="516" y="496" type="line"/>
      <point x="901" y="0" type="line"/>
      <point x="794" y="0" type="line"/>
      <point x="465" y="423" type="line"/>
      <point x="142" y="0" type="line"/>
      <point x="36" y="0" type="line"/>
      <point x="411" y="500" type="line"/>
      <point x="47" y="985" type="line"/>
      <point x="153" y="985" type="line"/>
    </contour>
  </outline>
</glyph>
<glyph name="z" format="1">
  <advance width="736"/>
  <unicode hex="007A"/>
  <outline>
    <contour>
      <point x="66" y="986" type="line"/>
      <point x="684" y="986" type="line"/>
      <point x="684" y="895" type="line"/>
      <point x="124" y="73" type="line"/>
      <point x="702" y="73" type="line"/>
      <point x="702" y="0" type="line"/>
      <point x="45" y="0" type="line"/>
      <point x="45" y="90" type="line"/>
      <point x="602" y="908" type="line"/>
      <point x="66" y="908" type="line"/>
    </contour>
    <contour>
      <point x="373" y="986" type="move" name="top"/>
    </contour>
  </outline>
</glyph>
<glyph name="copyright" format="1">
  <advance width="1775"/>
  <unicode hex="00A9"/>
  <outline>
    <contour>
      <point x="890" y="253" type="curve" smooth="yes"/>
      <point x="1006" y="253"/>
      <point x="1138" y="290"/>
      <point x="1196" y="327" type="curve"/>
      <point x="1170" y="417" type="line"/>
      <point x="1128" y="384"/>
      <point x="1012" y="346"/>
      <point x="914" y="346" type="curve" smooth="yes"/>
      <point x="649" y="346"/>
      <point x="552" y="530"/>
      <point x="552" y="744" type="curve" smooth="yes"/>
      <point x="552" y="929"/>
      <point x="639" y="1124"/>
      <point x="885" y="1124" type="curve" smooth="yes"/>
      <point x="984" y="1124"/>
      <point x="1085" y="1100"/>
      <point x="1135" y="1059" type="curve"/>
      <point x="1192" y="1134" type="line"/>
      <point x="1116" y="1187"/>
      <point x="1018" y="1220"/>
      <point x="909" y="1220" type="curve" smooth="yes"/>
      <point x="627" y="1220"/>
      <point x="447" y="1019"/>
      <point x="447" y="737" type="curve" smooth="yes"/>
      <point x="447" y="460"/>
      <point x="631" y="253"/>
    </contour>
    <contour>
      <point x="871" y="30" type="curve" smooth="yes"/>
      <point x="430" y="30"/>
      <point x="234" y="345"/>
      <point x="234" y="729" type="curve" smooth="yes"/>
      <point x="234" y="1102"/>
      <point x="430" y="1419"/>
      <point x="865" y="1419" type="curve" smooth="yes"/>
      <point x="1334" y="1419"/>
      <point x="1529" y="1100"/>
      <point x="1529" y="722" type="curve" smooth="yes"/>
      <point x="1529" y="342"/>
      <point x="1337" y="30"/>
    </contour>
    <contour>
      <point x="871" y="-40" type="curve" smooth="yes"/>
      <point x="1248" y="-40"/>
      <point x="1618" y="179"/>
      <point x="1618" y="726" type="curve" smooth="yes"/>
      <point x="1618" y="1269"/>
      <point x="1243" y="1486"/>
      <point x="865" y="1486" type="curve" smooth="yes"/>
      <point x="521" y="1486"/>
      <point x="146" y="1272"/>
      <point x="146" y="726" type="curve" smooth="yes"/>
      <point x="146" y="179"/>
      <point x="527" y="-40"/>
    </contour>
  </outline>
</glyph>
<glyph name="logicalnot" format="1">
  <advance width="1127"/>
  <unicode hex="00AC"/>
  <outline>
    <contour>
      <point x="991" y="738" type="line"/>
      <point x="991" y="242" type="line"/>
      <point x="918" y="242" type="line"/>
      <point x="918" y="646" type="line"/>
      <point x="101" y="646" type="line"/>
      <point x="101" y="738" type="line"/>
    </contour>
  </outline>
</glyph>
<glyph name="plusminus" format="1">
  <advance width="1122"/>
  <unicode hex="00B1"/>
  <outline>
    <contour>
      <point x="516" y="682" type="line"/>
      <point x="516" y="1094" type="line"/>
      <point x="586" y="1094" type="line"/>
      <point x="586" y="682" type="line"/>
      <point x="1001" y="682" type="line"/>
      <point x="1001" y="598" type="line"/>
      <point x="589" y="598" type="line"/>
      <point x="589" y="193" type="line"/>
      <point x="517" y="193" type="line"/>
      <point x="517" y="598" type="line"/>
      <point x="107" y="598" type="line"/>
      <point x="107" y="682" type="line"/>
    </contour>
    <contour>
      <point x="107" y="0" type="line"/>
      <point x="107" y="99" type="line"/>
      <point x="1004" y="99" type="line"/>
      <point x="1004" y="0" type="line"/>
    </contour>
  </outline>
</glyph>
<glyph name="Eth" format="1">
  <advance width="1603"/>
  <unicode hex="00D0"/>
  <outline>
    <contour>
      <point x="397" y="663" type="line"/>
      <point x="397" y="95" type="line"/>
      <point x="751" y="95" type="line" smooth="yes"/>
      <point x="1111" y="95"/>
      <point x="1334" y="279"/>
      <point x="1334" y="667" type="curve" smooth="yes"/>
      <point x="1334" y="1144"/>
      <point x="1037" y="1276"/>
      <point x="654" y="1276" type="curve" smooth="yes"/>
      <point x="397" y="1276" type="line"/>
      <point x="397" y="747" type="line"/>
      <point x="651" y="747" type="line"/>
      <point x="651" y="663" type="line"/>
    </contour>
    <contour>
      <point x="308" y="750" type="line"/>
      <point x="308" y="1375" type="line"/>
      <point x="632" y="1375" type="line" smooth="yes"/>
      <point x="1094" y="1375"/>
      <point x="1439" y="1219"/>
      <point x="1439" y="675" type="curve" smooth="yes"/>
      <point x="1439" y="212"/>
      <point x="1159" y="-1"/>
      <point x="733" y="-1" type="curve" smooth="yes"/>
      <point x="308" y="-1" type="line"/>
      <point x="308" y="666" type="line"/>
      <point x="204" y="666" type="line"/>
      <point x="204" y="750" type="line"/>
    </contour>
  </outline>
</glyph>
<glyph name="divide" format="1">
  <advance width="996"/>
  <unicode hex="00F7"/>
  <outline>
    <contour>
      <point x="416" y="21" type="line"/>
      <point x="416" y="193" type="line"/>
      <point x="523" y="193" type="line"/>
      <point x="523" y="21" type="line"/>
    </contour>
    <contour>
      <point x="61" y="497" type="line"/>
      <point x="61" y="600" type="line"/>
      <point x="914" y="600" type="line"/>
      <point x="914" y="497" type="line"/>
    </contour>
    <contour>
      <point x="416" y="892" type="line"/>
      <point x="416" y="1070" type="line"/>
      <point x="571" y="1070" type="line"/>
      <point x="571" y="892" type="line"/>
    </contour>
  </outline>
</glyph>
<glyph name="Hbar" format="1">
  <advance width="1569"/>
  <unicode hex="0126"/>
  <outline>
    <contour>
      <point x="261" y="1094" type="line"/>
      <point x="261" y="1378" type="line"/>
      <point x="349" y="1378" type="line"/>
      <point x="349" y="1094" type="line"/>
      <point x="1204" y="1094" type="line"/>
      <point x="1204" y="1378" type="line"/>
      <point x="1292" y="1378" type="line"/>
      <point x="1292" y="1094" type="line"/>
      <point x="1379" y="1094" type="line"/>
      <point x="1379" y="1027" type="line"/>
      <point x="1292" y="1027" type="line"/>
      <point x="1292" y="0" type="line"/>
      <point x="1204" y="0" type="line"/>
      <point x="1204" y="658" type="line"/>
      <point x="349" y="658" type="line"/>
      <point x="349" y="0" type="line"/>
      <point x="261" y="0" type="line"/>
      <point x="261" y="1027" type="line"/>
      <point x="173" y="1027" type="line"/>
      <point x="173" y="1094" type="line"/>
    </contour>
    <contour>
      <point x="349" y="761" type="line"/>
      <point x="1204" y="761" type="line"/>
      <point x="1204" y="1027" type="line"/>
      <point x="349" y="1027" type="line"/>
    </contour>
  </outline>
</glyph>
<glyph name="dotlessi" format="1">
  <advance width="363"/>
  <unicode hex="0131"/>
  <outline>
    <contour>
      <point x="146" y="0" type="line"/>
      <point x="146" y="988" type="line"/>
      <point x="230" y="988" type="line"/>
      <point x="230" y="0" type="line"/>
    </contour>
    <contour>
      <point x="182" y="986" type="move" name="top"/>
    </contour>
    <contour>
      <point x="327" y="10" type="move" name="ogonek"/>
    </contour>
  </outline>
</glyph>
<glyph name="uni0237" format="1">
  <advance width="384"/>
  <unicode hex="0237"/>
  <outline>
    <contour>
      <point x="-64" y="-448" type="line"/>
      <point x="-13" y="-448" type="line" smooth="yes"/>
      <point x="193" y="-448"/>
      <point x="237" y="-397"/>
      <point x="237" y="-178" type="curve" smooth="yes"/>
      <point x="237" y="1005" type="line"/>
      <point x="104" y="1005" type="line"/>
      <point x="104" y="-126" type="line" smooth="yes"/>
      <point x="104" y="-283"/>
      <point x="142" y="-343"/>
      <point x="-42" y="-343" type="curve" smooth="yes"/>
      <point x="-95" y="-343" type="line"/>
    </contour>
    <contour>
      <point x="192" y="986" type="move" name="top"/>
    </contour>
  </outline>
</glyph>
<glyph name="Upsilontonos" format="1">
  <advance width="484"/>
  <unicode hex="038E"/>
  <outline>
    <contour>
      <point x="229" y="485" type="curve" smooth="yes"/>
      <point x="152" y="485"/>
      <point x="113" y="542"/>
      <point x="113" y="600" type="curve" smooth="yes"/>
      <point x="113" y="658"/>
      <point x="152" y="715"/>
      <point x="229" y="715" type="curve" smooth="yes"/>
      <point x="307" y="715"/>
      <point x="346" y="658"/>
      <point x="346" y="600" type="curve" smooth="yes"/>
      <point x="346" y="542"/>
      <point x="307" y="485"/>
    </contour>
  </outline>
</glyph>
<glyph name="iotadieresistonos" format="1">
  <advance width="600"/>
  <unicode hex="0390"/>
  <outline>
    <contour>
      <point x="240" y="826" type="curve" smooth="yes"/>
      <point x="163" y="826"/>
      <point x="124" y="883"/>
      <point x="124" y="941" type="curve" smooth="yes"/>
      <point x="124" y="999"/>
      <point x="163" y="1057"/>
      <point x="240" y="1057" type="curve" smooth="yes"/>
      <point x="318" y="1057"/>
      <point x="356" y="999"/>
      <point x="356" y="941" type="curve" smooth="yes"/>
      <point x="356" y="883"/>
      <point x="318" y="826"/>
    </contour>
    <contour>
      <point x="327" y="485" type="curve" smooth="yes"/>
      <point x="250" y="485"/>
      <point x="211" y="542"/>
      <point x="211" y="600" type="curve" smooth="yes"/>
      <point x="211" y="658"/>
      <point x="250" y="715"/>
      <point x="327" y="715" type="curve" smooth="yes"/>
      <point x="405" y="715"/>
      <point x="444" y="658"/>
      <point x="444" y="600" type="curve" smooth="yes"/>
      <point x="444" y="542"/>
      <point x="405" y="485"/>
    </contour>
  </outline>
</glyph>
<glyph name="Epsilon" format="1">
  <advance width="1123"/>
  <unicode hex="0395"/>
  <outline>
    <contour>
      <point x="232" y="1263" type="line"/>
      <point x="232" y="740" type="line"/>
      <point x="874" y="740" type="line"/>
      <point x="874" y="651" type="line"/>
      <point x="232" y="651" type="line"/>
      <point x="232" y="86" type="line"/>
      <point x="940" y="86" type="line"/>
      <point x="933" y="0" type="line"/>
      <point x="142" y="0" type="line"/>
      <point x="142" y="1349" type="line"/>
      <point x="947" y="1349" type="line"/>
      <point x="943" y="1263" type="line"/>
    </contour>
    <contour>
      <point x="561" y="1349" type="move" name="top"/>
    </contour>
  </outline>
</glyph>
<glyph name="Zeta" format="1">
  <advance width="1234"/>
  <unicode hex="0396"/>
  <outline>
    <contour>
      <point x="170" y="1349" type="line"/>
      <point x="1036" y="1349" type="line"/>
      <point x="1036" y="1279" type="line"/>
      <point x="242" y="87" type="line"/>
      <point x="1042" y="87" type="line"/>
      <point x="1035" y="0" type="line"/>
      <point x="142" y="0" type="line"/>
      <point x="142" y="92" type="line"/>
      <point x="919" y="1261" type="line"/>
      <point x="171" y="1261" type="line"/>
    </contour>
  </outline>
</glyph>
<glyph name="Eta" format="1">
  <advance width="1307"/>
  <unicode hex="0397"/>
  <outline>
    <contour>
      <point x="1046" y="744" type="line"/>
      <point x="1046" y="1349" type="line"/>
      <point x="1136" y="1349" type="line"/>
      <point x="1136" y="0" type="line"/>
      <point x="1046" y="0" type="line"/>
      <point x="1046" y="664" type="line"/>
      <point x="230" y="664" type="line"/>
      <point x="230" y="0" type="line"/>
      <point x="141" y="0" type="line"/>
      <point x="141" y="1349" type="line"/>
      <point x="230" y="1349" type="line"/>
      <point x="230" y="744" type="line"/>
    </contour>
  </outline>
</glyph>
<glyph name="Chi" format="1">
  <advance width="1358"/>
  <unicode hex="03A7"/>
  <outline>
    <contour>
      <point x="683" y="677" type="line"/>
      <point x="1140" y="1349" type="line"/>
      <point x="1032" y="1349" type="line"/>
      <point x="637" y="790" type="line"/>
      <point x="239" y="1349" type="line"/>
      <point x="142" y="1349" type="line"/>
      <point x="604" y="674" type="line"/>
      <point x="166" y="0" type="line"/>
      <point x="269" y="0" type="line"/>
      <point x="647" y="564" type="line"/>
      <point x="1031" y="0" type="line"/>
      <point x="1123" y="0" type="line"/>
    </contour>
  </outline>
</glyph>
<glyph name="iotadieresis" format="1">
  <advance width="915"/>
  <unicode hex="03CA"/>
  <outline>
    <contour>
      <point x="529" y="485" type="curve" smooth="yes"/>
      <point x="452" y="485"/>
      <point x="413" y="542"/>
      <point x="413" y="600" type="curve" smooth="yes"/>
      <point x="413" y="658"/>
      <point x="452" y="715"/>
      <point x="529" y="715" type="curve" smooth="yes"/>
      <point x="607" y="715"/>
      <point x="645" y="658"/>
      <point x="645" y="600" type="curve" smooth="yes"/>
      <point x="645" y="542"/>
      <point x="607" y="485"/>
    </contour>
    <contour>
      <point x="325" y="1314" type="line"/>
      <point x="325" y="1155" type="line"/>
      <point x="225" y="1155" type="line"/>
      <point x="225" y="1314" type="line"/>
    </contour>
    <contour>
      <point x="665" y="1314" type="line"/>
      <point x="665" y="1155" type="line"/>
      <point x="564" y="1155" type="line"/>
      <point x="564" y="1314" type="line"/>
    </contour>
  </outline>
</glyph>
<glyph name="afii10022" format="1">
  <advance width="1067"/>
  <unicode hex="0415"/>
  <outline>
    <component base="E"/>
    <contour>
      <point x="538" y="1346" type="move" name="top"/>
    </contour>
  </outline>
</glyph>
<glyph name="afii10042" format="1">
  <advance width="1456"/>
  <unicode hex="0428"/>
  <outline>
    <contour>
      <point x="663" y="106" type="line"/>
      <point x="663" y="1353" type="line"/>
      <point x="752" y="1353" type="line"/>
      <point x="752" y="106" type="line"/>
      <point x="1196" y="106" type="line"/>
      <point x="1196" y="1353" type="line"/>
      <point x="1285" y="1353" type="line"/>
      <point x="1285" y="0" type="line"/>
      <point x="156" y="0" type="line"/>
      <point x="156" y="1353" type="line"/>
      <point x="245" y="1353" type="line"/>
      <point x="245" y="106" type="line"/>
    </contour>
  </outline>
</glyph>
<glyph name="afii10066" format="1">
  <advance width="1006"/>
  <unicode hex="0431"/>
  <outline>
    <contour>
      <point x="528" y="-19" type="curve" smooth="yes"/>
      <point x="761" y="-19"/>
      <point x="895" y="181"/>
      <point x="895" y="392" type="curve" smooth="yes"/>
      <point x="895" y="536"/>
      <point x="793" y="765"/>
      <point x="567" y="765" type="curve" smooth="yes"/>
      <point x="391" y="765"/>
      <point x="351" y="705"/>
      <point x="215" y="640" type="curve"/>
      <point x="290" y="1007"/>
      <point x="582" y="1044"/>
      <point x="832" y="1059" type="curve"/>
      <point x="835" y="1131" type="line"/>
      <point x="267" y="1098"/>
      <point x="108" y="856"/>
      <point x="108" y="487" type="curve" smooth="yes"/>
      <point x="108" y="496"/>
      <point x="58" y="-19"/>
    </contour>
    <contour>
      <point x="524" y="67" type="curve" smooth="yes"/>
      <point x="385" y="67"/>
      <point x="183" y="180"/>
      <point x="232" y="550" type="curve"/>
      <point x="369" y="685"/>
      <point x="518" y="697"/>
      <point x="567" y="697" type="curve" smooth="yes"/>
      <point x="716" y="697"/>
      <point x="817" y="559"/>
      <point x="817" y="406" type="curve" smooth="yes"/>
      <point x="817" y="182"/>
      <point x="751" y="67"/>
    </contour>
  </outline>
</glyph>
<glyph name="afii10070" format="1">
  <advance width="1030"/>
  <unicode hex="0435"/>
  <outline>
    <component base="e"/>
    <contour>
      <point x="506" y="986" type="move" name="top"/>
    </contour>
  </outline>
</glyph>
<glyph name="afii10077" format="1">
  <advance width="1168"/>
  <unicode hex="043B"/>
  <outline>
    <contour>
      <point x="839" y="-1" type="line"/>
      <point x="839" y="909" type="line"/>
      <point x="567" y="909" type="line"/>
      <point x="463" y="516" type="line" smooth="yes"/>
      <point x="391" y="215"/>
      <point x="383" y="-13"/>
      <point x="94" y="-7" type="curve" smooth="yes"/>
      <point x="100" y="-7"/>
      <point x="77" y="77"/>
      <point x="77" y="77" type="curve"/>
      <point x="230" y="69"/>
      <point x="284" y="166"/>
      <point x="356" y="541" type="curve" smooth="yes"/>
      <point x="484" y="988" type="line"/>
      <point x="960" y="988" type="line"/>
      <point x="960" y="-1" type="line"/>
    </contour>
  </outline>
</glyph>
<glyph name="afii10079" format="1">
  <advance width="1215"/>
  <unicode hex="043D"/>
  <outline>
    <contour>
      <point x="885" y="563" type="line"/>
      <point x="885" y="988" type="line"/>
      <point x="1006" y="988" type="line"/>
      <point x="1006" y="0" type="line"/>
      <point x="885" y="0" type="line"/>
      <point x="885" y="485" type="line"/>
      <point x="315" y="485" type="line"/>
      <point x="315" y="0" type="line"/>
      <point x="194" y="0" type="line"/>
      <point x="194" y="988" type="line"/>
      <point x="315" y="988" type="line"/>
      <point x="315" y="563" type="line"/>
    </contour>
  </outline>
</glyph>
<glyph name="afii10082" format="1">
  <advance width="1234"/>
  <unicode hex="0440"/>
  <outline>
    <contour>
      <point x="135" y="985" type="line"/>
      <point x="247" y="985" type="line"/>
      <point x="261" y="788" type="line"/>
      <point x="313" y="938"/>
      <point x="445" y="1005"/>
      <point x="588" y="1005" type="curve" smooth="yes"/>
      <point x="891" y="1005"/>
      <point x="1061" y="796"/>
      <point x="1061" y="481" type="curve" smooth="yes"/>
      <point x="1061" y="189"/>
      <point x="866" y="-23"/>
      <point x="606" y="-23" type="curve" smooth="yes"/>
      <point x="461" y="-23"/>
      <point x="311" y="53"/>
      <point x="246" y="160" type="curve"/>
      <point x="251" y="81"/>
      <point x="251" y="3"/>
      <point x="251" y="-81" type="curve" smooth="yes"/>
      <point x="251" y="-441" type="line"/>
      <point x="135" y="-449" type="line"/>
    </contour>
    <contour>
      <point x="593" y="60" type="curve" smooth="yes"/>
      <point x="833" y="60"/>
      <point x="945" y="241"/>
      <point x="945" y="490" type="curve" smooth="yes"/>
      <point x="945" y="726"/>
      <point x="842" y="920"/>
      <point x="598" y="920" type="curve" smooth="yes"/>
      <point x="339" y="920"/>
      <point x="251" y="740"/>
      <point x="252" y="507" type="curve"/>
      <point x="252" y="244"/>
      <point x="325" y="60"/>
    </contour>
  </outline>
</glyph>
<glyph name="afii10096" format="1">
  <advance width="1421"/>
  <unicode hex="044E"/>
  <outline>
    <contour>
      <point x="850" y="-26" type="curve" smooth="yes"/>
      <point x="560" y="-26"/>
      <point x="445" y="178"/>
      <point x="440" y="451" type="curve"/>
      <point x="243" y="451" type="line"/>
      <point x="243" y="0" type="line"/>
      <point x="161" y="0" type="line"/>
      <point x="161" y="988" type="line"/>
      <point x="243" y="988" type="line"/>
      <point x="243" y="530" type="line"/>
      <point x="440" y="530" type="line"/>
      <point x="446" y="799"/>
      <point x="563" y="1016"/>
      <point x="855" y="1016" type="curve" smooth="yes"/>
      <point x="1171" y="1016"/>
      <point x="1250" y="779"/>
      <point x="1250" y="493" type="curve" smooth="yes"/>
      <point x="1250" y="220"/>
      <point x="1159" y="-26"/>
    </contour>
    <contour>
      <point x="855" y="60" type="curve" smooth="yes"/>
      <point x="1092" y="60"/>
      <point x="1154" y="273"/>
      <point x="1154" y="491" type="curve" smooth="yes"/>
      <point x="1154" y="715"/>
      <point x="1101" y="930"/>
      <point x="850" y="930" type="curve" smooth="yes"/>
      <point x="609" y="930"/>
      <point x="539" y="703"/>
      <point x="539" y="486" type="curve" smooth="yes"/>
      <point x="539" y="274"/>
      <point x="612" y="60"/>
    </contour>
  </outline>
</glyph>
<glyph name="emdash" format="1">
  <advance width="2388"/>
  <unicode hex="2014"/>
  <outline>
    <contour>
      <point x="168" y="520" type="line"/>
      <point x="168" y="621" type="line"/>
      <point x="2203" y="621" type="line"/>
      <point x="2203" y="520" type="line"/>
    </contour>
  </outline>
</glyph>
<glyph name="daggerdbl" format="1">
  <advance width="959"/>
  <unicode hex="2021"/>
  <outline>
    <contour>
      <point x="438" y="584" type="line"/>
      <point x="438" y="1031" type="line"/>
      <point x="141" y="1031" type="line"/>
      <point x="141" y="1127" type="line"/>
      <point x="438" y="1127" type="line"/>
      <point x="438" y="1465" type="line"/>
      <point x="503" y="1465" type="line"/>
      <point x="503" y="1127" type="line"/>
      <point x="807" y="1127" type="line"/>
      <point x="807" y="1031" type="line"/>
      <point x="503" y="1031" type="line"/>
      <point x="502" y="584" type="line"/>
      <point x="799" y="584" type="line"/>
      <point x="799" y="484" type="line"/>
      <point x="502" y="484" type="line"/>
      <point x="502" y="198" type="line"/>
      <point x="438" y="198" type="line"/>
      <point x="438" y="484" type="line"/>
      <point x="135" y="484" type="line"/>
      <point x="135" y="584" type="line"/>
    </contour>
  </outline>
</glyph>
<glyph name="minus" format="1">
  <advance width="1037"/>
  <unicode hex="2212"/>
  <outline>
    <contour>
      <point x="68" y="526" type="line"/>
      <point x="68" y="629" type="line"/>
      <point x="946" y="629" type="line"/>
      <point x="946" y="526" type="line"/>
    </contour>
  </outline>
</glyph>
<glyph name="notequal" format="1">
  <advance width="1087"/>
  <unicode hex="2260"/>
  <outline>
    <contour>
      <point x="111" y="423" type="line"/>
      <point x="399" y="423" type="line"/>
      <point x="568" y="753" type="line"/>
      <point x="116" y="753" type="line"/>
      <point x="111" y="834" type="line"/>
      <point x="604" y="834" type="line"/>
      <point x="738" y="1120" type="line"/>
      <point x="797" y="1111" type="line"/>
      <point x="689" y="834" type="line"/>
      <point x="949" y="834" type="line"/>
      <point x="954" y="754" type="line"/>
      <point x="654" y="754" type="line"/>
      <point x="479" y="423" type="line"/>
      <point x="952" y="423" type="line"/>
      <point x="954" y="341" type="line"/>
      <point x="445" y="341" type="line"/>
      <point x="306" y="48" type="line"/>
      <point x="249" y="61" type="line"/>
      <point x="357" y="341" type="line"/>
      <point x="116" y="341" type="line"/>
    </contour>
  </outline>
</glyph>
<glyph name="lozenge" format="1">
  <advance width="1096"/>
  <unicode hex="25CA"/>
  <outline>
    <contour>
      <point x="954" y="720" type="line"/>
      <point x="573" y="-46" type="line"/>
      <point x="492" y="-46" type="line"/>
      <point x="116" y="717" type="line"/>
      <point x="497" y="1483" type="line"/>
      <point x="580" y="1483" type="line"/>
    </contour>
    <contour>
      <point x="530" y="49" type="curve"/>
      <point x="651" y="269"/>
      <point x="772" y="494"/>
      <point x="894" y="717" type="curve"/>
      <point x="775" y="938"/>
      <point x="658" y="1159"/>
      <point x="542" y="1382" type="curve"/>
      <point x="419" y="1164"/>
      <point x="299" y="941"/>
      <point x="177" y="719" type="curve"/>
      <point x="298" y="496"/>
      <point x="408" y="265"/>
    </contour>
  </outline>
</glyph>
<glyph name="afii10070.copy_1" format="1">
  <advance width="1030"/>
  <outline>
    <component base="e"/>
    <contour>
      <point x="510" y="999" type="move" name="top"/>
    </contour>
  </outline>
</glyph>
